<svg width="381" height="193" viewBox="0 0 381 193" fill="none" xmlns="http://www.w3.org/2000/svg">
<path d="M380.37 139.86H0.019989V143.19H380.37V139.86Z" fill="#E95EBE"/>
<path d="M246.35 0.880005H216.75V42.87H163.64V0.880005H134.04V67.85H216.75V89.9H155.77V114.88H246.35V0.880005Z" fill="#E95EBE"/>
<path d="M112.32 0.880005H82.72V89.9H29.61V0.880005H0V114.88H134.04V89.9H112.32V0.880005Z" fill="#E95EBE"/>
<path d="M351.92 0.880005L324.23 51.71L296.55 0.880005H268.08V114.88H297.68V54L314.41 84.38H334.06L350.79 54V114.88H380.39V0.880005H351.92Z" fill="#E95EBE"/>
<path d="M148 192.89L141.74 181.64L138.59 185.46V192.89H133.84V168.17H138.59V178.94L147.18 168.17H152.96L144.89 178L153.54 192.89H148Z" fill="#E95EBE"/>
<path d="M183.16 168.14L173.68 183.99V168.14H168.91V192.89H173.16L182.65 177.01V192.89H187.41V168.14H183.16Z" fill="#E95EBE"/>
<path d="M210.01 165.67H213.81V161.33H210.01V165.67ZM202.44 165.67H206.24V161.33H202.44V165.67ZM205.76 192.89H210.52V168.14H205.76V192.89Z" fill="#E95EBE"/>
<path d="M245.04 181.53C246.1 182.67 246.55 184.07 246.55 185.8C246.55 190.15 243.67 192.89 239.08 192.89H228.87V168.13H238.67C243.26 168.13 246.2 170.77 246.2 174.95C246.2 177.31 245.21 179.05 243.19 180.2C244.16 180.73 244.53 181 245.04 181.53ZM238.3 178.15C240.25 178.15 241.45 177.07 241.45 175.3C241.45 173.53 240.25 172.45 238.3 172.45H233.64V178.15H238.3ZM238.61 188.58C240.56 188.58 241.8 187.4 241.8 185.52C241.8 183.64 240.57 182.49 238.61 182.49H233.64V188.58H238.61Z" fill="#E95EBE"/>
</svg>
